# xmcd
#
# Track frame offsets: 
#        150
#        11815
#        20897
#        33312
#        46145
#        62262
#        74510
#        86380
#        102202
#        115600
#        126592
#        137167
#        151127
#        162500
#        174302
#        186790
#        198847
#        212342
#        224432
#        239797
#        253015
#        264997
#        278452
#        291627
#
# Disc length: 4182 seconds
#
# Revision: 4
# Processed by: cddbd v1.5.2PL0 Copyright (c) Steve Scherf et al.
# Submitted via: ExactAudioCopyFreeDBPlugin 1.0
#
DISCID=5e105418
DTITLE=The Supremes - The Supremes [box set]
DYEAR=2000
DGENRE=Soul
TTITLE0=Tears of Sorrow (as "The Primettes")
TTITLE1=Pretty Baby (as "The Primettes")
TTITLE2=After All
TTITLE3=The Boy That Got Away
TTITLE4=I Want a Guy (original single mix)
TTITLE5=Buttered Popcorn (alternate version)
TTITLE6=Your Heart Belongs to Me (original single mix)
TTITLE7=Let Me Go the Right Way (Live)
TTITLE8=My Heart Can't Take it No More (original single mix)
TTITLE9=A Breath Talking, First Sight Soul Shaking, One Night Love Mak
TTITLE9=ing, Next Day Heart Breaking Guy (original single mix)
TTITLE10=Run, Run, Run (original single mix)
TTITLE11=When the Lovelight Starts Shining Through His Eyes (original 
TTITLE11=single mix)
TTITLE12=Where Did Our Love Go
TTITLE13=Baby Love
TTITLE14=Ask Any Girl (original single mix)
TTITLE15=Come See About Me
TTITLE16=Ooowee Baby (original single mix)
TTITLE17=Shake
TTITLE18=Stop! In the Name of Love (alternate version)
TTITLE19=Back in My Arms Again
TTITLE20=It's All Your Fault (original single mix)
TTITLE21=Nothing But Heartaches
TTITLE22=Take Me Where You Go
TTITLE23=People (original version ft Florence Ballard)
EXTD=
EXTT0=
EXTT1=
EXTT2=
EXTT3=
EXTT4=
EXTT5=
EXTT6=
EXTT7=
EXTT8=
EXTT9=
EXTT10=
EXTT11=
EXTT12=
EXTT13=
EXTT14=
EXTT15=
EXTT16=
EXTT17=
EXTT18=
EXTT19=
EXTT20=
EXTT21=
EXTT22=
EXTT23=
PLAYORDER=
